<svg width="118" height="40" viewBox="0 0 118 40" fill="none" xmlns="http://www.w3.org/2000/svg">
<path d="M1.5 32V8.72727H11.5909C13.3636 8.72727 14.8523 8.96591 16.0568 9.44318C17.2689 9.92045 18.1818 10.5947 18.7955 11.4659C19.4167 12.3371 19.7273 13.3636 19.7273 14.5455C19.7273 15.4015 19.5379 16.1818 19.1591 16.8864C18.7879 17.5909 18.2652 18.1818 17.5909 18.6591C16.9167 19.1288 16.1288 19.4545 15.2273 19.6364V19.8636C16.2273 19.9015 17.1364 20.1553 17.9545 20.625C18.7727 21.0871 19.4242 21.7273 19.9091 22.5455C20.3939 23.3561 20.6364 24.3106 20.6364 25.4091C20.6364 26.6818 20.303 27.8144 19.6364 28.8068C18.9773 29.7992 18.0379 30.5795 16.8182 31.1477C15.5985 31.7159 14.1439 32 12.4545 32H1.5ZM7.81818 26.9545H10.7727C11.8333 26.9545 12.6288 26.7576 13.1591 26.3636C13.6894 25.9621 13.9545 25.3712 13.9545 24.5909C13.9545 24.0455 13.8295 23.5833 13.5795 23.2045C13.3295 22.8258 12.9735 22.5379 12.5114 22.3409C12.0568 22.1439 11.5076 22.0455 10.8636 22.0455H7.81818V26.9545ZM7.81818 18.1364H10.4091C10.9621 18.1364 11.4508 18.0492 11.875 17.875C12.2992 17.7008 12.6288 17.4508 12.8636 17.125C13.1061 16.7917 13.2273 16.3864 13.2273 15.9091C13.2273 15.1894 12.9697 14.6402 12.4545 14.2614C11.9394 13.875 11.2879 13.6818 10.5 13.6818H7.81818V18.1364Z" fill="white"/>
<path d="M27.5 32V8.72727H33.8182V26.9091H43.2273V32H27.5Z" fill="white"/>
<path d="M109.614 16.4091C109.515 16.0076 109.36 15.6553 109.148 15.3523C108.936 15.0417 108.67 14.7803 108.352 14.5682C108.042 14.3485 107.678 14.1856 107.261 14.0795C106.852 13.9659 106.402 13.9091 105.909 13.9091C104.848 13.9091 103.943 14.1629 103.193 14.6705C102.451 15.178 101.883 15.9091 101.489 16.8636C101.102 17.8182 100.909 18.9697 100.909 20.3182C100.909 21.6818 101.095 22.8485 101.466 23.8182C101.837 24.7879 102.39 25.5303 103.125 26.0455C103.86 26.5606 104.773 26.8182 105.864 26.8182C106.826 26.8182 107.625 26.678 108.261 26.3977C108.905 26.1174 109.386 25.7197 109.705 25.2045C110.023 24.6894 110.182 24.0833 110.182 23.3864L111.273 23.5H105.955V19H116.273V22.2273C116.273 24.3485 115.822 26.1629 114.92 27.6705C114.027 29.1705 112.792 30.322 111.216 31.125C109.648 31.9205 107.848 32.3182 105.818 32.3182C103.553 32.3182 101.564 31.8371 99.8523 30.875C98.1402 29.9129 96.803 28.5417 95.8409 26.7614C94.8864 24.9811 94.4091 22.8636 94.4091 20.4091C94.4091 18.4848 94.7008 16.7803 95.2841 15.2955C95.875 13.8106 96.6932 12.5568 97.7386 11.5341C98.7841 10.5038 99.9924 9.72727 101.364 9.20454C102.735 8.67424 104.205 8.40909 105.773 8.40909C107.152 8.40909 108.432 8.60606 109.614 9C110.803 9.38636 111.852 9.93939 112.761 10.6591C113.678 11.3712 114.417 12.2159 114.977 13.1932C115.538 14.1705 115.879 15.2424 116 16.4091H109.614Z" fill="white"/>
<rect x="53" y="4" width="32" height="32" rx="16" fill="#111827"/>
<path d="M65.5909 36V18.5455H71.8636V36H65.5909ZM68.7273 16.7273C67.8788 16.7273 67.1515 16.447 66.5455 15.8864C65.9394 15.3258 65.6364 14.6515 65.6364 13.8636C65.6364 13.0758 65.9394 12.4015 66.5455 11.8409C67.1515 11.2803 67.8788 11 68.7273 11C69.5833 11 70.3106 11.2803 70.9091 11.8409C71.5152 12.4015 71.8182 13.0758 71.8182 13.8636C71.8182 14.6515 71.5152 15.3258 70.9091 15.8864C70.3106 16.447 69.5833 16.7273 68.7273 16.7273Z" fill="#C4B5FD"/>
<rect x="53" y="4" width="32" height="32" rx="16" stroke="#C4B5FD" stroke-width="8"/>
</svg>
