<svg width="102" height="40" viewBox="0 0 102 40" fill="none" xmlns="http://www.w3.org/2000/svg">
<path d="M1.125 29V11.5455H8.69318C10.0227 11.5455 11.1392 11.7244 12.0426 12.0824C12.9517 12.4403 13.6364 12.946 14.0966 13.5994C14.5625 14.2528 14.7955 15.0227 14.7955 15.9091C14.7955 16.5511 14.6534 17.1364 14.3693 17.6648C14.0909 18.1932 13.6989 18.6364 13.1932 18.9943C12.6875 19.3466 12.0966 19.5909 11.4205 19.7273V19.8977C12.1705 19.9261 12.8523 20.1165 13.4659 20.4688C14.0795 20.8153 14.5682 21.2955 14.9318 21.9091C15.2955 22.517 15.4773 23.233 15.4773 24.0568C15.4773 25.0114 15.2273 25.8608 14.7273 26.6051C14.233 27.3494 13.5284 27.9347 12.6136 28.3608C11.6989 28.7869 10.608 29 9.34091 29H1.125ZM5.86364 25.2159H8.07955C8.875 25.2159 9.47159 25.0682 9.86932 24.7727C10.267 24.4716 10.4659 24.0284 10.4659 23.4432C10.4659 23.0341 10.3722 22.6875 10.1847 22.4034C9.99716 22.1193 9.73011 21.9034 9.38352 21.7557C9.04261 21.608 8.63068 21.5341 8.14773 21.5341H5.86364V25.2159ZM5.86364 18.6023H7.80682C8.22159 18.6023 8.58807 18.5369 8.90625 18.4062C9.22443 18.2756 9.47159 18.0881 9.64773 17.8438C9.82955 17.5938 9.92045 17.2898 9.92045 16.9318C9.92045 16.392 9.72727 15.9801 9.34091 15.696C8.95455 15.4062 8.46591 15.2614 7.875 15.2614H5.86364V18.6023Z" fill="white"/>
<path d="M22.125 29V11.5455H26.8636V25.1818H33.9205V29H22.125Z" fill="white"/>
<path d="M95.4602 17.3068C95.3864 17.0057 95.2699 16.7415 95.1108 16.5142C94.9517 16.2812 94.7528 16.0852 94.5142 15.9261C94.2813 15.7614 94.0085 15.6392 93.696 15.5597C93.3892 15.4744 93.0511 15.4318 92.6818 15.4318C91.8864 15.4318 91.2074 15.6222 90.6449 16.0028C90.0881 16.3835 89.6619 16.9318 89.3665 17.6477C89.0767 18.3636 88.9318 19.2273 88.9318 20.2386C88.9318 21.2614 89.071 22.1364 89.3494 22.8636C89.6278 23.5909 90.0426 24.1477 90.5938 24.5341C91.1449 24.9205 91.8295 25.1136 92.6477 25.1136C93.3693 25.1136 93.9688 25.0085 94.446 24.7983C94.929 24.5881 95.2898 24.2898 95.5284 23.9034C95.767 23.517 95.8864 23.0625 95.8864 22.5398L96.7045 22.625H92.7159V19.25H100.455V21.6705C100.455 23.2614 100.116 24.6222 99.4403 25.7528C98.7699 26.8778 97.8438 27.7415 96.6619 28.3438C95.4858 28.9403 94.1364 29.2386 92.6136 29.2386C90.9148 29.2386 89.4233 28.8778 88.1392 28.1562C86.8551 27.4347 85.8523 26.4062 85.1307 25.071C84.4148 23.7358 84.0568 22.1477 84.0568 20.3068C84.0568 18.8636 84.2756 17.5852 84.7131 16.4716C85.1563 15.358 85.7699 14.4176 86.554 13.6506C87.3381 12.8778 88.2443 12.2955 89.2727 11.9034C90.3011 11.5057 91.4034 11.3068 92.5795 11.3068C93.6136 11.3068 94.5739 11.4545 95.4602 11.75C96.3523 12.0398 97.1392 12.4545 97.821 12.9943C98.5085 13.5284 99.0625 14.1619 99.483 14.8949C99.9034 15.6278 100.159 16.4318 100.25 17.3068H95.4602Z" fill="white"/>
<rect x="43" y="4" width="32" height="32" rx="16" fill="#111827"/>
<path d="M56.1932 33V19.9091H60.8977V33H56.1932ZM58.5455 18.5455C57.9091 18.5455 57.3636 18.3352 56.9091 17.9148C56.4545 17.4943 56.2273 16.9886 56.2273 16.3977C56.2273 15.8068 56.4545 15.3011 56.9091 14.8807C57.3636 14.4602 57.9091 14.25 58.5455 14.25C59.1875 14.25 59.733 14.4602 60.1818 14.8807C60.6364 15.3011 60.8636 15.8068 60.8636 16.3977C60.8636 16.9886 60.6364 17.4943 60.1818 17.9148C59.733 18.3352 59.1875 18.5455 58.5455 18.5455Z" fill="#C4B5FD"/>
<rect x="43" y="4" width="32" height="32" rx="16" stroke="#C4B5FD" stroke-width="8"/>
</svg>
